<svg width="137" height="100" viewBox="0 0 137 100" fill="none" xmlns="http://www.w3.org/2000/svg">
<path d="M52.0533 28.9413C59.9467 28.9413 66.3707 22.52 66.3707 14.624C66.3707 14.0827 66.2693 13.568 66.2107 13.0427H70.056C70 13.568 69.896 14.0827 69.896 14.624C69.896 22.5173 76.32 28.9413 84.2133 28.9413C92.1067 28.9413 98.5307 22.52 98.5307 14.624C98.5307 6.728 92.1067 0.306664 84.2133 0.306664C77.6107 0.306664 72.096 4.82133 70.4453 10.9093H65.816C64.168 4.824 58.6533 0.30933 52.0533 0.30933C44.16 0.30933 37.736 6.73066 37.736 14.6267C37.736 22.5227 44.16 28.9413 52.0533 28.9413ZM84.216 2.44266C90.936 2.44266 96.3973 7.90933 96.3973 14.6267C96.3973 21.344 90.9333 26.8107 84.216 26.8107C77.4987 26.8107 72.0347 21.344 72.0347 14.6267C72.0347 7.90933 77.4987 2.44266 84.216 2.44266ZM52.0533 2.44266C58.7733 2.44266 64.2347 7.90933 64.2347 14.6267C64.2347 21.344 58.7707 26.8107 52.0533 26.8107C45.336 26.8107 39.872 21.344 39.872 14.6267C39.872 7.90933 45.3333 2.44266 52.0533 2.44266Z" fill="white"/>
<path d="M98.5467 34.5253C98.504 34.12 98.2347 33.7733 97.8507 33.6347C97.464 33.4987 97.0347 33.5893 96.7413 33.872C94.512 36.0427 92.5493 37.0533 90.5627 37.0533C88.0293 37.0533 85.192 35.4933 80.7707 31.6667C78.5227 29.7227 76.2667 28.736 74.0587 28.736C71.5787 28.736 69.352 30.0827 68 32.2587C66.6427 30.0827 64.416 28.736 61.9387 28.736C59.7307 28.736 57.4693 29.7253 55.2213 31.6773C50.808 35.512 47.9707 37.0773 45.432 37.0773C43.4507 37.0773 41.488 36.0693 39.2533 33.904C38.96 33.6213 38.528 33.5307 38.1467 33.6667C37.76 33.808 37.4907 34.1547 37.448 34.5627C36.8187 40.8 43.4453 46.632 52.2213 47.5627C53.0347 47.648 53.8347 47.6907 54.6213 47.6907C60.56 47.6907 65.6773 45.2827 68.0053 41.616C70.3333 45.2773 75.4427 47.68 81.368 47.68C82.168 47.68 82.9787 47.6373 83.8053 47.5493C92.584 46.6053 99.1947 40.7653 98.5467 34.5253ZM83.576 45.4267C82.8293 45.5067 82.0907 45.544 81.368 45.544C75.24 45.544 70.168 42.7547 69.032 38.76C68.7707 37.8427 67.24 37.8427 66.9787 38.76C65.712 43.2267 59.5147 46.1893 52.4453 45.44C46.0427 44.7627 40.9387 41.2693 39.784 37.1547C41.6907 38.5467 43.5227 39.208 45.432 39.208C48.536 39.208 51.7787 37.4907 56.6187 33.2853C58.4427 31.704 60.28 30.8693 61.936 30.8693C64.792 30.8693 66.432 33.2027 66.968 35.2027C67.2187 36.136 68.7813 36.136 69.0293 35.2027C69.5627 33.2027 71.2027 30.8693 74.0587 30.8693C75.712 30.8693 77.552 31.704 79.3733 33.28C84.2213 37.4747 87.4613 39.184 90.56 39.184C92.4773 39.184 94.312 38.52 96.2187 37.1227C95.0773 41.2373 89.9813 44.7387 83.576 45.4267Z" fill="white"/>
<path d="M8.69922 93.1602H16.7852V95H6.4375V77.9375H8.69922V93.1602ZM26.3242 93.7461C25.4805 94.7383 24.2422 95.2344 22.6094 95.2344C21.2578 95.2344 20.2266 94.8438 19.5156 94.0625C18.8125 93.2734 18.457 92.1094 18.4492 90.5703V82.3203H20.6172V90.5117C20.6172 92.4336 21.3984 93.3945 22.9609 93.3945C24.6172 93.3945 25.7188 92.7773 26.2656 91.543V82.3203H28.4336V95H26.3711L26.3242 93.7461ZM39.1211 91.6367C39.1211 91.0508 38.8984 90.5977 38.4531 90.2773C38.0156 89.9492 37.2461 89.668 36.1445 89.4336C35.0508 89.1992 34.1797 88.918 33.5312 88.5898C32.8906 88.2617 32.4141 87.8711 32.1016 87.418C31.7969 86.9648 31.6445 86.4258 31.6445 85.8008C31.6445 84.7617 32.082 83.8828 32.957 83.1641C33.8398 82.4453 34.9648 82.0859 36.332 82.0859C37.7695 82.0859 38.9336 82.457 39.8242 83.1992C40.7227 83.9414 41.1719 84.8906 41.1719 86.0469H38.9922C38.9922 85.4531 38.7383 84.9414 38.2305 84.5117C37.7305 84.082 37.0977 83.8672 36.332 83.8672C35.543 83.8672 34.9258 84.0391 34.4805 84.3828C34.0352 84.7266 33.8125 85.1758 33.8125 85.7305C33.8125 86.2539 34.0195 86.6484 34.4336 86.9141C34.8477 87.1797 35.5938 87.4336 36.6719 87.6758C37.7578 87.918 38.6367 88.207 39.3086 88.543C39.9805 88.8789 40.4766 89.2852 40.7969 89.7617C41.125 90.2305 41.2891 90.8047 41.2891 91.4844C41.2891 92.6172 40.8359 93.5273 39.9297 94.2148C39.0234 94.8945 37.8477 95.2344 36.4023 95.2344C35.3867 95.2344 34.4883 95.0547 33.707 94.6953C32.9258 94.3359 32.3125 93.8359 31.8672 93.1953C31.4297 92.5469 31.2109 91.8477 31.2109 91.0977H33.3789C33.418 91.8242 33.707 92.4023 34.2461 92.832C34.793 93.2539 35.5117 93.4648 36.4023 93.4648C37.2227 93.4648 37.8789 93.3008 38.3711 92.9727C38.8711 92.6367 39.1211 92.1914 39.1211 91.6367ZM47.0547 79.25V82.3203H49.4219V83.9961H47.0547V91.8594C47.0547 92.3672 47.1602 92.75 47.3711 93.0078C47.582 93.2578 47.9414 93.3828 48.4492 93.3828C48.6992 93.3828 49.043 93.3359 49.4805 93.2422V95C48.9102 95.1562 48.3555 95.2344 47.8164 95.2344C46.8477 95.2344 46.1172 94.9414 45.625 94.3555C45.1328 93.7695 44.8867 92.9375 44.8867 91.8594V83.9961H42.5781V82.3203H44.8867V79.25H47.0547ZM57.4609 90.418C57.4609 89.5977 57.6875 88.8438 58.1406 88.1562C58.6016 87.4688 59.4766 86.668 60.7656 85.7539C60.0078 84.832 59.5 84.0898 59.2422 83.5273C58.9844 82.9648 58.8555 82.4062 58.8555 81.8516C58.8555 80.5547 59.2383 79.5391 60.0039 78.8047C60.7695 78.0703 61.8086 77.7031 63.1211 77.7031C64.293 77.7031 65.2617 78.0469 66.0273 78.7344C66.793 79.4141 67.1758 80.2734 67.1758 81.3125C67.1758 82 67 82.6367 66.6484 83.2227C66.3047 83.8008 65.6992 84.4102 64.832 85.0508L63.5781 85.9766L67.375 90.5117C67.9062 89.4961 68.1719 88.3672 68.1719 87.125H70.1289C70.1289 89.1172 69.6484 90.7695 68.6875 92.082L71.125 95H68.5234L67.3867 93.6523C66.8086 94.168 66.1289 94.5625 65.3477 94.8359C64.5742 95.1016 63.7852 95.2344 62.9805 95.2344C61.3164 95.2344 59.9805 94.793 58.9727 93.9102C57.9648 93.0273 57.4609 91.8633 57.4609 90.418ZM62.9805 93.4648C64.1289 93.4648 65.1797 93.0273 66.1328 92.1523L61.9727 87.1719L61.5859 87.4531C60.2812 88.4141 59.6289 89.4023 59.6289 90.418C59.6289 91.3398 59.9258 92.0781 60.5195 92.6328C61.1211 93.1875 61.9414 93.4648 62.9805 93.4648ZM61.0234 81.7812C61.0234 82.5312 61.4844 83.4688 62.4062 84.5938L63.7891 83.6211C64.3203 83.2461 64.6836 82.8906 64.8789 82.5547C65.0742 82.2109 65.1719 81.7969 65.1719 81.3125C65.1719 80.7891 64.9766 80.3555 64.5859 80.0117C64.1953 79.6602 63.7031 79.4844 63.1094 79.4844C62.4688 79.4844 61.9609 79.7031 61.5859 80.1406C61.2109 80.5703 61.0234 81.1172 61.0234 81.7812ZM81.3906 88.3203V95H79.1406V77.9375H85.4336C87.3008 77.9375 88.7617 78.4141 89.8164 79.3672C90.8789 80.3203 91.4102 81.582 91.4102 83.1523C91.4102 84.8086 90.8906 86.0859 89.8516 86.9844C88.8203 87.875 87.3398 88.3203 85.4102 88.3203H81.3906ZM81.3906 86.4805H85.4336C86.6367 86.4805 87.5586 86.1992 88.1992 85.6367C88.8398 85.0664 89.1602 84.2461 89.1602 83.1758C89.1602 82.1602 88.8398 81.3477 88.1992 80.7383C87.5586 80.1289 86.6797 79.8125 85.5625 79.7891H81.3906V86.4805ZM100.07 84.2656C99.7422 84.2109 99.3867 84.1836 99.0039 84.1836C97.582 84.1836 96.6172 84.7891 96.1094 86V95H93.9414V82.3203H96.0508L96.0859 83.7852C96.7969 82.6523 97.8047 82.0859 99.1094 82.0859C99.5312 82.0859 99.8516 82.1406 100.07 82.25V84.2656ZM104.43 95H102.262V82.3203H104.43V95ZM102.086 78.957C102.086 78.6055 102.191 78.3086 102.402 78.0664C102.621 77.8242 102.941 77.7031 103.363 77.7031C103.785 77.7031 104.105 77.8242 104.324 78.0664C104.543 78.3086 104.652 78.6055 104.652 78.957C104.652 79.3086 104.543 79.6016 104.324 79.8359C104.105 80.0703 103.785 80.1875 103.363 80.1875C102.941 80.1875 102.621 80.0703 102.402 79.8359C102.191 79.6016 102.086 79.3086 102.086 78.957ZM107.383 88.5547C107.383 86.6094 107.844 85.0469 108.766 83.8672C109.688 82.6797 110.895 82.0859 112.387 82.0859C113.871 82.0859 115.047 82.5938 115.914 83.6094V77H118.082V95H116.09L115.984 93.6406C115.117 94.7031 113.91 95.2344 112.363 95.2344C110.895 95.2344 109.695 94.6328 108.766 93.4297C107.844 92.2266 107.383 90.6562 107.383 88.7188V88.5547ZM109.551 88.8008C109.551 90.2383 109.848 91.3633 110.441 92.1758C111.035 92.9883 111.855 93.3945 112.902 93.3945C114.277 93.3945 115.281 92.7773 115.914 91.543V85.7188C115.266 84.5234 114.27 83.9258 112.926 83.9258C111.863 83.9258 111.035 84.3359 110.441 85.1562C109.848 85.9766 109.551 87.1914 109.551 88.8008ZM126.719 95.2344C125 95.2344 123.602 94.6719 122.523 93.5469C121.445 92.4141 120.906 90.9023 120.906 89.0117V88.6133C120.906 87.3555 121.145 86.2344 121.621 85.25C122.105 84.2578 122.777 83.4844 123.637 82.9297C124.504 82.3672 125.441 82.0859 126.449 82.0859C128.098 82.0859 129.379 82.6289 130.293 83.7148C131.207 84.8008 131.664 86.3555 131.664 88.3789V89.2812H123.074C123.105 90.5312 123.469 91.543 124.164 92.3164C124.867 93.082 125.758 93.4648 126.836 93.4648C127.602 93.4648 128.25 93.3086 128.781 92.9961C129.312 92.6836 129.777 92.2695 130.176 91.7539L131.5 92.7852C130.438 94.418 128.844 95.2344 126.719 95.2344ZM126.449 83.8672C125.574 83.8672 124.84 84.1875 124.246 84.8281C123.652 85.4609 123.285 86.3516 123.145 87.5H129.496V87.3359C129.434 86.2344 129.137 85.3828 128.605 84.7812C128.074 84.1719 127.355 83.8672 126.449 83.8672Z" fill="white"/>
</svg>
