<svg width="137" height="102" viewBox="0 0 137 102" fill="none" xmlns="http://www.w3.org/2000/svg">
<path d="M8.69922 95.1602H16.7852V97H6.4375V79.9375H8.69922V95.1602ZM26.3242 95.7461C25.4805 96.7383 24.2422 97.2344 22.6094 97.2344C21.2578 97.2344 20.2266 96.8438 19.5156 96.0625C18.8125 95.2734 18.457 94.1094 18.4492 92.5703V84.3203H20.6172V92.5117C20.6172 94.4336 21.3984 95.3945 22.9609 95.3945C24.6172 95.3945 25.7188 94.7773 26.2656 93.543V84.3203H28.4336V97H26.3711L26.3242 95.7461ZM39.1211 93.6367C39.1211 93.0508 38.8984 92.5977 38.4531 92.2773C38.0156 91.9492 37.2461 91.668 36.1445 91.4336C35.0508 91.1992 34.1797 90.918 33.5312 90.5898C32.8906 90.2617 32.4141 89.8711 32.1016 89.418C31.7969 88.9648 31.6445 88.4258 31.6445 87.8008C31.6445 86.7617 32.082 85.8828 32.957 85.1641C33.8398 84.4453 34.9648 84.0859 36.332 84.0859C37.7695 84.0859 38.9336 84.457 39.8242 85.1992C40.7227 85.9414 41.1719 86.8906 41.1719 88.0469H38.9922C38.9922 87.4531 38.7383 86.9414 38.2305 86.5117C37.7305 86.082 37.0977 85.8672 36.332 85.8672C35.543 85.8672 34.9258 86.0391 34.4805 86.3828C34.0352 86.7266 33.8125 87.1758 33.8125 87.7305C33.8125 88.2539 34.0195 88.6484 34.4336 88.9141C34.8477 89.1797 35.5938 89.4336 36.6719 89.6758C37.7578 89.918 38.6367 90.207 39.3086 90.543C39.9805 90.8789 40.4766 91.2852 40.7969 91.7617C41.125 92.2305 41.2891 92.8047 41.2891 93.4844C41.2891 94.6172 40.8359 95.5273 39.9297 96.2148C39.0234 96.8945 37.8477 97.2344 36.4023 97.2344C35.3867 97.2344 34.4883 97.0547 33.707 96.6953C32.9258 96.3359 32.3125 95.8359 31.8672 95.1953C31.4297 94.5469 31.2109 93.8477 31.2109 93.0977H33.3789C33.418 93.8242 33.707 94.4023 34.2461 94.832C34.793 95.2539 35.5117 95.4648 36.4023 95.4648C37.2227 95.4648 37.8789 95.3008 38.3711 94.9727C38.8711 94.6367 39.1211 94.1914 39.1211 93.6367ZM47.0547 81.25V84.3203H49.4219V85.9961H47.0547V93.8594C47.0547 94.3672 47.1602 94.75 47.3711 95.0078C47.582 95.2578 47.9414 95.3828 48.4492 95.3828C48.6992 95.3828 49.043 95.3359 49.4805 95.2422V97C48.9102 97.1562 48.3555 97.2344 47.8164 97.2344C46.8477 97.2344 46.1172 96.9414 45.625 96.3555C45.1328 95.7695 44.8867 94.9375 44.8867 93.8594V85.9961H42.5781V84.3203H44.8867V81.25H47.0547ZM57.4609 92.418C57.4609 91.5977 57.6875 90.8438 58.1406 90.1562C58.6016 89.4688 59.4766 88.668 60.7656 87.7539C60.0078 86.832 59.5 86.0898 59.2422 85.5273C58.9844 84.9648 58.8555 84.4062 58.8555 83.8516C58.8555 82.5547 59.2383 81.5391 60.0039 80.8047C60.7695 80.0703 61.8086 79.7031 63.1211 79.7031C64.293 79.7031 65.2617 80.0469 66.0273 80.7344C66.793 81.4141 67.1758 82.2734 67.1758 83.3125C67.1758 84 67 84.6367 66.6484 85.2227C66.3047 85.8008 65.6992 86.4102 64.832 87.0508L63.5781 87.9766L67.375 92.5117C67.9062 91.4961 68.1719 90.3672 68.1719 89.125H70.1289C70.1289 91.1172 69.6484 92.7695 68.6875 94.082L71.125 97H68.5234L67.3867 95.6523C66.8086 96.168 66.1289 96.5625 65.3477 96.8359C64.5742 97.1016 63.7852 97.2344 62.9805 97.2344C61.3164 97.2344 59.9805 96.793 58.9727 95.9102C57.9648 95.0273 57.4609 93.8633 57.4609 92.418ZM62.9805 95.4648C64.1289 95.4648 65.1797 95.0273 66.1328 94.1523L61.9727 89.1719L61.5859 89.4531C60.2812 90.4141 59.6289 91.4023 59.6289 92.418C59.6289 93.3398 59.9258 94.0781 60.5195 94.6328C61.1211 95.1875 61.9414 95.4648 62.9805 95.4648ZM61.0234 83.7812C61.0234 84.5312 61.4844 85.4688 62.4062 86.5938L63.7891 85.6211C64.3203 85.2461 64.6836 84.8906 64.8789 84.5547C65.0742 84.2109 65.1719 83.7969 65.1719 83.3125C65.1719 82.7891 64.9766 82.3555 64.5859 82.0117C64.1953 81.6602 63.7031 81.4844 63.1094 81.4844C62.4688 81.4844 61.9609 81.7031 61.5859 82.1406C61.2109 82.5703 61.0234 83.1172 61.0234 83.7812ZM81.3906 90.3203V97H79.1406V79.9375H85.4336C87.3008 79.9375 88.7617 80.4141 89.8164 81.3672C90.8789 82.3203 91.4102 83.582 91.4102 85.1523C91.4102 86.8086 90.8906 88.0859 89.8516 88.9844C88.8203 89.875 87.3398 90.3203 85.4102 90.3203H81.3906ZM81.3906 88.4805H85.4336C86.6367 88.4805 87.5586 88.1992 88.1992 87.6367C88.8398 87.0664 89.1602 86.2461 89.1602 85.1758C89.1602 84.1602 88.8398 83.3477 88.1992 82.7383C87.5586 82.1289 86.6797 81.8125 85.5625 81.7891H81.3906V88.4805ZM100.07 86.2656C99.7422 86.2109 99.3867 86.1836 99.0039 86.1836C97.582 86.1836 96.6172 86.7891 96.1094 88V97H93.9414V84.3203H96.0508L96.0859 85.7852C96.7969 84.6523 97.8047 84.0859 99.1094 84.0859C99.5312 84.0859 99.8516 84.1406 100.07 84.25V86.2656ZM104.43 97H102.262V84.3203H104.43V97ZM102.086 80.957C102.086 80.6055 102.191 80.3086 102.402 80.0664C102.621 79.8242 102.941 79.7031 103.363 79.7031C103.785 79.7031 104.105 79.8242 104.324 80.0664C104.543 80.3086 104.652 80.6055 104.652 80.957C104.652 81.3086 104.543 81.6016 104.324 81.8359C104.105 82.0703 103.785 82.1875 103.363 82.1875C102.941 82.1875 102.621 82.0703 102.402 81.8359C102.191 81.6016 102.086 81.3086 102.086 80.957ZM107.383 90.5547C107.383 88.6094 107.844 87.0469 108.766 85.8672C109.688 84.6797 110.895 84.0859 112.387 84.0859C113.871 84.0859 115.047 84.5938 115.914 85.6094V79H118.082V97H116.09L115.984 95.6406C115.117 96.7031 113.91 97.2344 112.363 97.2344C110.895 97.2344 109.695 96.6328 108.766 95.4297C107.844 94.2266 107.383 92.6562 107.383 90.7188V90.5547ZM109.551 90.8008C109.551 92.2383 109.848 93.3633 110.441 94.1758C111.035 94.9883 111.855 95.3945 112.902 95.3945C114.277 95.3945 115.281 94.7773 115.914 93.543V87.7188C115.266 86.5234 114.27 85.9258 112.926 85.9258C111.863 85.9258 111.035 86.3359 110.441 87.1562C109.848 87.9766 109.551 89.1914 109.551 90.8008ZM126.719 97.2344C125 97.2344 123.602 96.6719 122.523 95.5469C121.445 94.4141 120.906 92.9023 120.906 91.0117V90.6133C120.906 89.3555 121.145 88.2344 121.621 87.25C122.105 86.2578 122.777 85.4844 123.637 84.9297C124.504 84.3672 125.441 84.0859 126.449 84.0859C128.098 84.0859 129.379 84.6289 130.293 85.7148C131.207 86.8008 131.664 88.3555 131.664 90.3789V91.2812H123.074C123.105 92.5312 123.469 93.543 124.164 94.3164C124.867 95.082 125.758 95.4648 126.836 95.4648C127.602 95.4648 128.25 95.3086 128.781 94.9961C129.312 94.6836 129.777 94.2695 130.176 93.7539L131.5 94.7852C130.438 96.418 128.844 97.2344 126.719 97.2344ZM126.449 85.8672C125.574 85.8672 124.84 86.1875 124.246 86.8281C123.652 87.4609 123.285 88.3516 123.145 89.5H129.496V89.3359C129.434 88.2344 129.137 87.3828 128.605 86.7812C128.074 86.1719 127.355 85.8672 126.449 85.8672Z" fill="white"/>
<path d="M52.3173 28.6347C60.2107 28.6347 66.6347 22.2133 66.6347 14.3173C66.6347 13.776 66.5333 13.2613 66.4747 12.736H70.32C70.264 13.2613 70.16 13.776 70.16 14.3173C70.16 22.2107 76.584 28.6347 84.4773 28.6347C92.3707 28.6347 98.7947 22.2133 98.7947 14.3173C98.7947 6.42133 92.3707 0 84.4773 0C77.8747 0 72.36 4.51467 70.7093 10.6027H66.08C64.432 4.51733 58.9173 0.00266647 52.3173 0.00266647C44.424 0.00266647 38 6.424 38 14.32C38 22.216 44.424 28.6347 52.3173 28.6347ZM84.48 2.136C91.2 2.136 96.6613 7.60267 96.6613 14.32C96.6613 21.0373 91.1973 26.504 84.48 26.504C77.7627 26.504 72.2987 21.0373 72.2987 14.32C72.2987 7.60267 77.7627 2.136 84.48 2.136ZM52.3173 2.136C59.0373 2.136 64.4987 7.60267 64.4987 14.32C64.4987 21.0373 59.0347 26.504 52.3173 26.504C45.6 26.504 40.136 21.0373 40.136 14.32C40.136 7.60267 45.5973 2.136 52.3173 2.136Z" fill="white"/>
<path d="M99.14 34.7893C99.0974 34.384 98.828 34.0373 98.444 33.8987C98.0574 33.7627 97.628 33.8533 97.3347 34.136C95.1054 36.3067 93.1427 37.3173 91.156 37.3173C88.6227 37.3173 85.7854 35.7573 81.364 31.9307C79.116 29.9867 76.86 29 74.652 29C72.172 29 69.9454 30.3467 68.5934 32.5227C67.236 30.3467 65.0094 29 62.532 29C60.324 29 58.0627 29.9893 55.8147 31.9413C51.4014 35.776 48.564 37.3413 46.0254 37.3413C44.044 37.3413 42.0814 36.3333 39.8467 34.168C39.5534 33.8853 39.1214 33.7947 38.74 33.9307C38.3534 34.072 38.084 34.4187 38.0414 34.8267C37.412 41.064 44.0387 46.896 52.8147 47.8267C53.628 47.912 54.428 47.9547 55.2147 47.9547C61.1534 47.9547 66.2707 45.5467 68.5987 41.88C70.9267 45.5413 76.036 47.944 81.9614 47.944C82.7614 47.944 83.572 47.9013 84.3987 47.8133C93.1774 46.8693 99.788 41.0293 99.14 34.7893Z" fill="white"/>
</svg>
