<svg width="40" height="32" viewBox="0 0 40 32" fill="none" xmlns="http://www.w3.org/2000/svg">
<path d="M9.3602 18.7198C14.5206 18.7198 18.7204 14.5219 18.7204 9.35988C18.7204 9.00599 18.6541 8.66953 18.6158 8.32609H21.1297C21.0931 8.66953 21.0251 9.00599 21.0251 9.35988C21.0251 14.5201 25.2249 18.7198 30.3853 18.7198C35.5457 18.7198 39.7455 14.5219 39.7455 9.35988C39.7455 4.19791 35.5457 0 30.3853 0C26.0687 0 22.4634 2.95144 21.3843 6.93144H18.3578C17.2804 2.95318 13.6751 0.00174319 9.3602 0.00174319C4.1998 0.00174319 0 4.19966 0 9.36163C0 14.5236 4.1998 18.7198 9.3602 18.7198ZM30.3871 1.3964C34.7804 1.3964 38.3508 4.9702 38.3508 9.36163C38.3508 13.753 34.7787 17.3269 30.3871 17.3269C25.9955 17.3269 22.4233 13.753 22.4233 9.36163C22.4233 4.9702 25.9955 1.3964 30.3871 1.3964ZM9.3602 1.3964C13.7535 1.3964 17.324 4.9702 17.324 9.36163C17.324 13.753 13.7518 17.3269 9.3602 17.3269C4.96863 17.3269 1.39645 13.753 1.39645 9.36163C1.39645 4.9702 4.96689 1.3964 9.3602 1.3964Z" fill="#DAA520"/>
<path d="M39.9713 22.7433C39.9434 22.4784 39.7674 22.2517 39.5163 22.1611C39.2635 22.0722 38.9828 22.1314 38.7911 22.3162C37.3336 23.7353 36.0505 24.396 34.7517 24.396C33.0954 24.396 31.2405 23.3762 28.35 20.8745C26.8803 19.6036 25.4054 18.9586 23.9619 18.9586C22.3405 18.9586 20.8848 19.839 20.0009 21.2615C19.1136 19.839 17.6578 18.9586 16.0382 18.9586C14.5947 18.9586 13.1163 19.6054 11.6467 20.8815C8.76137 23.3884 6.90641 24.4117 5.24672 24.4117C3.95139 24.4117 2.66826 23.7527 1.20731 22.3372C1.01554 22.1524 0.733111 22.0931 0.483808 22.182C0.231018 22.2744 0.0549366 22.501 0.0270425 22.7678C-0.384395 26.8454 3.9479 30.658 9.68536 31.2664C10.2171 31.3222 10.7401 31.3501 11.2544 31.3501C15.1369 31.3501 18.4824 29.7759 20.0044 27.3788C21.5264 29.7724 24.8667 31.3431 28.7405 31.3431C29.2635 31.3431 29.7935 31.3152 30.3339 31.2577C36.0731 30.6406 40.395 26.8227 39.9713 22.7433Z" fill="#DAA520"/>
</svg>
