<svg width="62" height="48" viewBox="0 0 62 48" fill="none" xmlns="http://www.w3.org/2000/svg">
<path d="M15.0533 28.9413C22.9467 28.9413 29.3707 22.52 29.3707 14.624C29.3707 14.0827 29.2693 13.568 29.2107 13.0427H33.056C33 13.568 32.896 14.0827 32.896 14.624C32.896 22.5173 39.32 28.9413 47.2133 28.9413C55.1067 28.9413 61.5307 22.52 61.5307 14.624C61.5307 6.728 55.1067 0.306664 47.2133 0.306664C40.6107 0.306664 35.096 4.82133 33.4453 10.9093H28.816C27.168 4.824 21.6533 0.30933 15.0533 0.30933C7.15999 0.30933 0.735992 6.73066 0.735992 14.6267C0.735992 22.5227 7.15999 28.9413 15.0533 28.9413ZM47.216 2.44266C53.936 2.44266 59.3973 7.90933 59.3973 14.6267C59.3973 21.344 53.9333 26.8107 47.216 26.8107C40.4987 26.8107 35.0347 21.344 35.0347 14.6267C35.0347 7.90933 40.4987 2.44266 47.216 2.44266ZM15.0533 2.44266C21.7733 2.44266 27.2347 7.90933 27.2347 14.6267C27.2347 21.344 21.7707 26.8107 15.0533 26.8107C8.33599 26.8107 2.87199 21.344 2.87199 14.6267C2.87199 7.90933 8.33333 2.44266 15.0533 2.44266Z" fill="white"/>
<path d="M61.5467 34.5253C61.504 34.12 61.2347 33.7733 60.8507 33.6347C60.464 33.4987 60.0347 33.5893 59.7413 33.872C57.512 36.0427 55.5493 37.0533 53.5627 37.0533C51.0293 37.0533 48.192 35.4933 43.7707 31.6667C41.5227 29.7227 39.2667 28.736 37.0587 28.736C34.5787 28.736 32.352 30.0827 31 32.2587C29.6427 30.0827 27.416 28.736 24.9387 28.736C22.7307 28.736 20.4693 29.7253 18.2213 31.6773C13.808 35.512 10.9707 37.0773 8.432 37.0773C6.45066 37.0773 4.488 36.0693 2.25333 33.904C1.96 33.6213 1.528 33.5307 1.14666 33.6667C0.759996 33.808 0.490662 34.1547 0.447996 34.5627C-0.181338 40.8 6.44533 46.632 15.2213 47.5627C16.0347 47.648 16.8347 47.6907 17.6213 47.6907C23.56 47.6907 28.6773 45.2827 31.0053 41.616C33.3333 45.2773 38.4427 47.68 44.368 47.68C45.168 47.68 45.9787 47.6373 46.8053 47.5493C55.584 46.6053 62.1947 40.7653 61.5467 34.5253ZM46.576 45.4267C45.8293 45.5067 45.0907 45.544 44.368 45.544C38.24 45.544 33.168 42.7547 32.032 38.76C31.7707 37.8427 30.24 37.8427 29.9787 38.76C28.712 43.2267 22.5147 46.1893 15.4453 45.44C9.04266 44.7627 3.93866 41.2693 2.784 37.1547C4.69066 38.5467 6.52266 39.208 8.432 39.208C11.536 39.208 14.7787 37.4907 19.6187 33.2853C21.4427 31.704 23.28 30.8693 24.936 30.8693C27.792 30.8693 29.432 33.2027 29.968 35.2027C30.2187 36.136 31.7813 36.136 32.0293 35.2027C32.5627 33.2027 34.2027 30.8693 37.0587 30.8693C38.712 30.8693 40.552 31.704 42.3733 33.28C47.2213 37.4747 50.4613 39.184 53.56 39.184C55.4773 39.184 57.312 38.52 59.2187 37.1227C58.0773 41.2373 52.9813 44.7387 46.576 45.4267Z" fill="white"/>
</svg>
